# xmcd
#
# Track frame offsets:
#   150
#   17180
#   38868
#   50407
#   63401
#   70646
#   87544
#   103557
#   123289
#
# Disc length: 1930 seconds
#
# Revision: 0
# Processed by: cddbd v1.5.2PL0 Copyright (c) Steve Scherf et al.
# Submitted via: uFREEDB ActiveX Control 1.5
#
DISCID=74078809
DTITLE=Gabriel Sater - Instrumental
DYEAR=2006
DGENRE=Country
TTITLE0=Turuniño
TTITLE1=Amores Para Vida Inteira
TTITLE2=Jha Che Valle
TTITLE3=Vazante Correntina
TTITLE4=Arabescos
TTITLE5=Choro Pantaneiro
TTITLE6=Tangateiro
TTITLE7=Mandruvá
TTITLE8=Envido
EXTD=
EXTT0=
EXTT1=
EXTT2=
EXTT3=
EXTT4=
EXTT5=
EXTT6=
EXTT7=
EXTT8=
PLAYORDER=
